<svg xmlns="http://www.w3.org/2000/svg" xml:space="preserve" viewBox="0 0 1296 394"><style>.st0{fill:#032a5a}</style><g id="Capa_1"><path d="M448.5 216q16.7-12.6 16.6-38.2a53 53 0 0 0-15.4-38.4 48 48 0 0 0-34.7-14h-80.4q-5.3 0-5.7 5.1V313q0 5.8 5.7 5.8h88.2c12.9 0 26-5.8 36.4-16.1a53 53 0 0 0 16.4-38.2c0-20.2-11-39.8-27-48.6m-92.1-64h53c18 0 28.5 9.6 28.5 26.4s-10.7 27.2-28.8 27.2h-52.7zm91.3 112c0 14-10 28.2-29 28.2h-62.3v-59.5h61.3c7.4-.1 15.3 3.3 21.2 9.2a30 30 0 0 1 8.8 22M648 125.4H522.3q-5.6.1-5.7 5.6v182q0 5.8 5.7 5.8h125.6q6 0 6-5.8v-16.3q0-5.6-6-5.7H544v-60.3h80.2q6.3 0 6.5-5.7v-15.8q-.2-5.7-6.5-5.8H544V153h104q6 0 6.1-5.9v-16q0-5.6-6.1-5.7m163.2 176.3h-94.5v-167c0-6.7-4.3-9.1-8-9.1-4.8 0-8 3.7-8 9.1v175.6c0 5.2 3.2 8.6 8 8.6h102.5q3.5 0 5.9-2c1.4-1.2 3-3.3 3-6.9 0-3.8-2.4-8.3-9-8.3m112.5-170.2-.4-.8a8 8 0 0 0-2.9-3.5 7 7 0 0 0-4.2-1.4H915c-1.7.2-5 1.3-6.7 5.7L839 306.8q-.7 1.8-.7 3.8a8 8 0 0 0 2.7 6.2q2.3 2 5.5 2h.3c1.5 0 5-.5 7-5.6l18.3-46.5h87.4l18.3 46.6c2 5 5.6 5.6 7 5.6h.4q3.1-.1 5.5-2.3a8 8 0 0 0 2.7-6.2q0-1.7-.7-3.5zm-44.9 118.2 37.1-94.2 37 94.2zm246.6-124.1h-123.4c-4.9 0-8.2 3.5-8.2 8.6s3.3 8.6 8.2 8.6h53.8v167.5c0 5.1 3.3 8.5 8.2 8.5 5 0 8-3.4 8-8.5V142.8h53.4c4.7 0 8-3.6 8-8.8s-3.2-8.4-8-8.4" class="st0"/><path d="M16.6 21.4c2.4-2.5 6.1-1 6.1-1l233.7 87s3.4.8 4 4.2c.4 3.5-2 5.4-2 5.4L117.2 246.1s-2.3 2.4-5.4 1.8c-3-.6-4-4-4-4L15.3 27.8S14 24 16.6 21.4" style="fill:#d64d7a"/><path d="M237 165.3c-1.6-2.8-4.8-2.9-4.8-2.9l-182-23.2v-.1l-6-.8s-3.7-.4-5.5 2c-1.7 2.3-.6 6-.6 6L122.2 379s1.7 4 5 3.9c3.5-.1 5.2-3.4 5.2-3.4l104.3-208.9s1.9-2.6.2-5.4z" style="fill:#14aa95"/><path d="M63.7 141 108 244s1 3.3 4 4c3.1.5 5.4-1.8 5.4-1.8l94.5-86.4z" class="st0"/></g></svg>