<svg xmlns="http://www.w3.org/2000/svg" viewBox="0 0 1264.80 1264.80" width="512" height="512"><g transform="translate(122.40,167.40)"><g transform="translate(0.000000,930.000000) scale(0.100000,-0.100000)"
fill="#D5A348" stroke="none">
<path d="M5500 9094 c-71 -19 -148 -65 -221 -132 -111 -102 -126 -184 -60
-333 22 -49 53 -108 69 -131 44 -66 156 -285 185 -363 15 -38 46 -137 71 -220
l44 -150 5 -295 c5 -341 -4 -520 -33 -675 -27 -137 -87 -320 -144 -433 -23
-48 -53 -113 -65 -144 -14 -34 -38 -71 -57 -88 -40 -34 -88 -40 -99 -12 -4 9
-11 98 -16 197 -12 267 -36 526 -58 650 -25 138 -85 418 -110 510 -10 39 -22
93 -26 120 -3 28 -18 70 -32 95 -13 25 -33 72 -45 105 -11 33 -30 74 -42 90
-29 37 -69 117 -86 168 -7 21 -35 69 -63 105 -27 37 -64 90 -81 117 -59 98
-128 180 -328 392 -186 198 -283 288 -361 337 -21 14 -54 21 -113 24 -72 4
-89 1 -138 -21 -121 -56 -216 -152 -262 -266 -24 -62 -15 -137 24 -198 33 -51
166 -168 270 -235 138 -92 268 -222 368 -373 45 -66 150 -265 178 -334 9 -24
31 -64 48 -89 17 -25 44 -84 58 -131 15 -47 39 -113 53 -146 30 -73 43 -147
62 -375 23 -269 20 -434 -10 -589 -33 -171 -62 -280 -80 -307 -21 -32 -81 -49
-126 -35 -89 27 -240 81 -275 99 -22 10 -91 36 -154 58 l-114 39 -166 168
c-91 93 -183 196 -204 230 -22 34 -61 86 -88 115 -26 30 -60 75 -75 100 -14
26 -51 89 -81 140 -103 175 -138 369 -128 704 4 114 11 257 16 317 11 117 -1
326 -20 377 -29 77 -99 114 -246 134 -45 6 -96 15 -115 20 -70 20 -167 3 -212
-38 -30 -27 -116 -206 -132 -275 -8 -34 -24 -129 -35 -210 -20 -139 -20 -154
-6 -240 8 -51 17 -142 21 -203 8 -148 62 -400 132 -618 33 -102 179 -404 228
-471 12 -16 50 -82 83 -145 33 -63 77 -137 96 -165 41 -57 44 -82 17 -116 -28
-35 -96 -31 -186 10 -38 18 -106 43 -150 56 -97 29 -233 78 -278 101 -17 9
-55 35 -84 58 -29 23 -94 68 -145 101 -54 34 -139 104 -202 165 -171 164 -507
503 -547 551 -20 24 -62 60 -94 79 -90 53 -149 43 -241 -42 -41 -38 -134 -173
-134 -194 0 -5 -18 -40 -40 -78 -78 -132 -79 -202 -4 -289 24 -29 61 -77 83
-107 56 -80 201 -214 311 -287 130 -86 251 -183 269 -214 33 -58 -6 -97 -134
-134 -33 -9 -175 -75 -315 -145 -140 -70 -265 -131 -278 -135 -13 -4 -51 -28
-85 -54 -34 -26 -80 -58 -102 -71 -55 -32 -193 -141 -232 -181 -72 -76 -96
-195 -55 -274 30 -59 115 -162 166 -201 130 -99 221 -112 348 -52 43 20 99 56
125 80 27 24 71 58 99 76 27 17 61 43 75 58 66 72 201 141 364 188 304 86 296
85 515 92 219 6 435 -10 534 -41 27 -8 82 -15 123 -15 86 0 185 -14 298 -42
57 -14 141 -22 295 -29 173 -7 253 -16 411 -44 108 -19 218 -42 245 -50 27 -8
78 -22 113 -30 76 -18 178 -79 272 -163 36 -32 80 -68 96 -80 48 -34 107 -118
171 -244 69 -134 78 -158 97 -253 23 -112 65 -381 65 -417 0 -103 45 -161 145
-189 135 -38 657 -50 765 -18 64 19 79 43 100 165 10 60 24 159 30 219 6 61
20 151 31 200 33 151 79 339 90 366 6 14 47 64 92 111 66 68 108 100 217 165
74 44 169 97 210 118 41 20 100 52 130 71 63 38 256 105 404 140 56 13 135 35
176 49 41 13 102 31 135 39 33 7 78 21 100 29 28 10 116 18 290 26 138 6 304
16 370 21 351 27 435 31 536 21 57 -6 167 -16 244 -21 218 -16 333 -40 457
-95 59 -26 126 -64 150 -84 23 -20 80 -94 126 -166 96 -149 122 -179 174 -206
58 -29 117 -25 169 13 110 79 245 223 274 292 34 81 9 141 -106 251 -203 193
-580 461 -681 485 -29 7 -95 30 -145 52 -51 21 -115 46 -143 54 -74 22 -78 38
-33 131 47 99 158 224 228 260 28 14 73 42 100 63 28 21 74 52 104 70 71 41
143 103 175 149 19 27 26 50 26 84 0 62 -19 106 -72 164 -24 27 -56 65 -72 86
-38 52 -78 74 -145 81 -74 8 -136 -9 -249 -72 -95 -52 -126 -75 -245 -180 -87
-75 -320 -359 -392 -477 -10 -16 -33 -46 -51 -65 -18 -19 -49 -67 -68 -106
-46 -93 -107 -149 -181 -164 -89 -18 -131 3 -122 62 10 66 74 216 120 279 58
83 129 229 163 339 63 203 74 244 74 274 0 17 7 56 15 86 30 113 43 410 25
587 -5 54 -17 167 -25 252 -17 167 -35 230 -88 318 -63 103 -108 133 -200 133
-61 0 -213 -32 -254 -54 -35 -18 -105 -92 -127 -134 -19 -36 -21 -119 -5 -159
17 -41 30 -401 18 -501 -5 -46 -21 -118 -34 -160 -13 -42 -31 -115 -39 -162
-43 -250 -191 -600 -304 -722 -33 -35 -69 -82 -80 -105 -15 -29 -38 -52 -79
-76 -32 -20 -76 -54 -98 -77 -46 -47 -148 -131 -185 -151 -14 -7 -72 -30 -130
-50 -58 -20 -152 -54 -210 -74 -141 -50 -291 -66 -347 -38 -60 29 -72 66 -75
219 -2 96 2 143 14 184 9 30 20 89 23 130 11 118 63 414 91 519 29 106 36 123
70 163 12 15 32 52 43 83 11 30 31 72 44 92 12 21 35 68 51 105 15 36 42 83
61 105 18 21 55 77 83 124 28 47 58 92 67 99 9 8 38 43 63 79 69 96 344 358
482 459 192 140 216 159 257 209 82 101 79 168 -10 274 -44 53 -66 69 -147
108 l-95 46 -109 -2 c-176 -3 -260 -37 -407 -165 -34 -29 -91 -88 -126 -132
-35 -43 -74 -87 -87 -97 -14 -11 -45 -48 -71 -84 -61 -85 -103 -98 -141 -40
-9 14 -47 117 -84 228 -88 262 -129 355 -201 450 -32 43 -67 92 -76 109 -10
16 -58 56 -106 89 -83 55 -92 59 -145 58 -31 0 -82 -7 -112 -15z"/>
<path d="M640 4015 c-109 -32 -374 -164 -433 -216 -49 -42 -126 -158 -148
-221 -12 -34 -10 -48 10 -125 27 -104 94 -263 129 -304 38 -46 78 -62 136 -56
53 6 201 70 271 117 22 15 83 49 135 76 l95 49 140 0 c168 -1 289 -28 446
-100 54 -25 102 -45 107 -45 5 0 33 -17 63 -39 30 -21 72 -44 94 -51 22 -7 66
-26 98 -42 32 -16 101 -40 155 -54 53 -14 133 -37 177 -52 75 -25 91 -27 250
-26 l170 0 133 47 c167 59 311 126 376 176 28 21 72 50 99 65 26 15 47 32 47
38 0 5 39 49 88 97 94 93 107 117 118 228 7 63 -3 93 -61 188 -42 70 -78 95
-136 95 -93 0 -242 -64 -396 -172 -67 -46 -120 -65 -228 -83 -176 -29 -530 2
-725 63 -52 17 -117 33 -144 37 -41 6 -58 16 -111 65 -34 32 -72 61 -84 65
-12 4 -48 21 -79 39 -166 93 -332 145 -482 151 -58 3 -132 7 -165 10 -45 3
-81 -2 -145 -20z"/>
<path d="M8926 3979 c-39 -5 -105 -21 -148 -34 -44 -14 -84 -25 -89 -25 -6 0
-45 -14 -87 -31 -43 -17 -113 -44 -157 -60 -44 -16 -104 -46 -134 -65 -72 -48
-198 -114 -218 -114 -8 0 -50 -15 -92 -34 -97 -43 -226 -70 -308 -63 -50 4
-88 17 -190 67 -70 34 -156 71 -190 81 -42 13 -69 28 -80 45 -87 125 -232 182
-332 130 -41 -22 -171 -154 -212 -215 -57 -87 -67 -177 -28 -256 43 -87 230
-265 394 -375 28 -18 79 -57 115 -85 85 -68 90 -70 198 -89 153 -26 272 -19
482 30 129 31 225 68 445 174 220 106 291 134 455 181 111 32 157 40 260 46
158 7 204 -2 568 -118 l93 -30 89 17 c149 27 215 81 294 240 49 98 44 176 -17
256 -39 51 -206 149 -312 183 -38 12 -90 32 -114 45 -50 25 -229 83 -309 99
-62 13 -276 12 -376 0z"/>
<path d="M4956 3039 c-125 -11 -319 -55 -351 -79 -16 -13 -203 -91 -289 -121
-44 -16 -102 -44 -130 -62 -58 -38 -194 -99 -276 -123 -30 -9 -114 -40 -186
-69 -203 -83 -347 -134 -411 -146 -32 -6 -81 -17 -108 -25 -28 -8 -93 -18
-145 -24 -52 -5 -138 -16 -190 -25 -126 -20 -200 -19 -432 5 -106 11 -263 27
-348 35 -232 24 -460 74 -500 110 -18 16 -99 52 -290 126 -145 57 -257 75
-406 65 -327 -22 -420 -162 -286 -431 31 -64 86 -131 120 -149 55 -28 105 -29
215 -2 58 14 124 26 148 26 48 0 334 -66 464 -107 44 -14 107 -32 140 -39 33
-8 94 -28 135 -44 70 -27 201 -60 445 -115 55 -13 129 -30 165 -38 148 -35
325 -50 499 -43 305 12 472 41 745 131 105 34 207 65 226 69 56 12 251 76 295
98 22 11 65 35 95 54 31 18 109 51 175 73 66 22 165 56 220 76 55 20 147 50
205 66 58 16 128 36 155 44 150 45 375 58 601 35 208 -20 336 -56 500 -138 44
-22 108 -48 143 -58 35 -9 84 -32 110 -49 25 -18 87 -47 136 -65 50 -18 128
-50 175 -71 257 -115 320 -142 366 -155 28 -8 76 -25 105 -38 30 -14 91 -29
138 -35 46 -6 156 -28 245 -50 203 -50 256 -59 386 -66 116 -7 87 -14 370 83
80 28 174 62 210 77 87 37 269 98 410 139 63 18 167 54 230 79 85 34 138 49
203 56 131 15 181 55 280 219 127 210 133 337 23 426 l-38 31 -147 0 c-144 0
-147 0 -218 -33 -39 -18 -108 -39 -154 -47 -57 -10 -110 -27 -164 -54 -78 -39
-158 -76 -397 -180 -121 -54 -267 -93 -418 -111 -47 -6 -115 -18 -151 -25 -55
-12 -106 -13 -277 -6 -217 10 -298 24 -562 96 -126 35 -369 119 -426 148 -63
32 -163 73 -238 98 -32 11 -75 31 -95 43 -20 13 -68 35 -106 49 -271 100 -451
170 -516 201 -79 38 -112 44 -369 66 -139 11 -320 11 -454 -1z"/>
<path d="M5045 1830 c-173 -8 -185 -10 -305 -49 -260 -85 -481 -169 -547 -209
-37 -22 -90 -50 -117 -62 -26 -11 -59 -29 -72 -39 -14 -11 -56 -31 -93 -46
-38 -14 -86 -41 -107 -59 -54 -46 -131 -88 -302 -163 -246 -110 -272 -117
-501 -138 -194 -18 -216 -18 -441 -3 -232 16 -240 17 -321 51 -274 113 -412
185 -486 251 -55 50 -175 114 -227 123 -27 4 -49 -1 -91 -21 -67 -34 -110 -84
-126 -149 -16 -67 -7 -172 19 -222 27 -53 111 -133 197 -187 39 -25 76 -53 84
-62 8 -10 36 -28 63 -42 26 -13 74 -41 106 -61 67 -43 204 -110 307 -149 39
-15 87 -38 108 -51 20 -13 65 -30 100 -39 34 -8 80 -22 102 -31 31 -12 76 -15
210 -15 221 2 503 20 585 38 36 7 94 18 129 25 58 9 141 39 327 115 33 13 82
40 110 59 102 71 120 82 163 99 24 9 58 28 76 42 18 13 60 34 94 45 34 12 85
37 114 57 58 40 182 99 307 147 47 18 120 46 162 64 42 17 112 36 155 42 43 6
133 19 200 30 144 23 243 24 335 4 37 -7 119 -21 182 -30 141 -19 192 -37 365
-124 294 -148 477 -234 601 -282 19 -7 62 -28 95 -46 63 -34 355 -118 515
-147 47 -9 189 -25 315 -35 205 -17 246 -17 380 -6 150 13 276 41 395 87 50
20 463 216 535 255 17 9 46 30 65 48 19 17 55 47 80 65 61 45 87 76 116 135
39 81 33 116 -35 221 -70 107 -79 115 -135 121 -89 10 -216 -32 -338 -114
-105 -70 -229 -127 -315 -147 -38 -8 -88 -19 -113 -24 -25 -6 -70 -19 -100
-30 -82 -30 -245 -40 -515 -33 -229 7 -249 9 -445 49 -113 24 -221 48 -240 54
-19 6 -111 48 -205 93 -93 46 -208 101 -255 123 -47 23 -137 71 -200 106 -63
36 -153 81 -200 100 -47 19 -137 58 -200 87 -63 28 -137 57 -163 65 -65 18
-283 24 -502 14z"/>
</g></g></svg>